<svg xmlns="http://www.w3.org/2000/svg" viewBox="0 0 256 256">
  <defs>
    <linearGradient id="bg" x1="0" y1="0" x2="1" y2="1">
      <stop offset="0%" stop-color="#3a3f55"/>
      <stop offset="100%" stop-color="#161a2b"/>
    </linearGradient>
    <linearGradient id="accent" x1="0" y1="0" x2="1" y2="1">
      <stop offset="0%" stop-color="#62d0ff"/>
      <stop offset="100%" stop-color="#4a79ff"/>
    </linearGradient>
  </defs>
  <rect x="18" y="18" width="220" height="220" rx="44" fill="url(#bg)"/>
  <rect x="34" y="34" width="188" height="188" rx="30" fill="#24293a" stroke="#5d6789" stroke-width="6"/>
  <rect x="56" y="62" width="144" height="34" rx="10" fill="#1f2433"/>
  <circle cx="76" cy="79" r="8" fill="#ff7b7b"/>
  <circle cx="100" cy="79" r="8" fill="#ffd36d"/>
  <circle cx="124" cy="79" r="8" fill="#78e08f"/>
  <path d="M60 146c24-32 47-48 68-48 19 0 34 11 44 32 8 17 18 26 31 26h13v28H60z" fill="url(#accent)"/>
  <path d="M90 130l14 20 22-28 17 18 20-24 25 40H72z" fill="#cfe8ff" opacity="0.82"/>
  <text x="128" y="196" text-anchor="middle" font-size="42" font-family="DejaVu Sans, Arial, sans-serif" font-weight="700" fill="#f6f8ff">GIF</text>
</svg>
